<svg xmlns="http://www.w3.org/2000/svg" version="1.1" xmlns:xlink="http://www.w3.org/1999/xlink" xmlns:svgjs="http://svgjs.dev/svgjs" width="1440" height="750" preserveAspectRatio="none" viewBox="0 0 1440 750"><g mask="url(&quot;#SvgjsMask1030&quot;)" fill="none"><rect width="1440" height="750" x="0" y="0" fill="rgba(18, 18, 18, 1)"></rect><path d="M95 750L845 0L1479.5 0L729.5 750z" fill="url(&quot;#SvgjsLinearGradient1031&quot;)"></path><path d="M495.20000000000005 750L1245.2 0L1359.2 0L609.2 750z" fill="url(&quot;#SvgjsLinearGradient1031&quot;)"></path><path d="M1434 750L684 0L553.5 0L1303.5 750z" fill="url(&quot;#SvgjsLinearGradient1032&quot;)"></path><path d="M869.8 750L119.79999999999995 0L-226.70000000000005 0L523.3 750z" fill="url(&quot;#SvgjsLinearGradient1032&quot;)"></path><path d="M864.6368424534436 750L1440 174.6368424534436L1440 750z" fill="url(&quot;#SvgjsLinearGradient1031&quot;)"></path><path d="M0 750L575.3631575465564 750L 0 174.6368424534436z" fill="url(&quot;#SvgjsLinearGradient1032&quot;)"></path></g><defs><mask id="SvgjsMask1030"><rect width="1440" height="750" fill="#ffffff"></rect></mask><linearGradient x1="0%" y1="100%" x2="100%" y2="0%" id="SvgjsLinearGradient1031"><stop stop-color="rgba(65, 234, 212, 0.01)" offset="0"></stop><stop stop-opacity="0" stop-color="rgba(65, 234, 212, 0.01)" offset="0.66"></stop></linearGradient><linearGradient x1="100%" y1="100%" x2="0%" y2="0%" id="SvgjsLinearGradient1032"><stop stop-color="rgba(65, 234, 212, 0.01)" offset="0"></stop><stop stop-opacity="0" stop-color="rgba(65, 234, 212, 0.01)" offset="0.66"></stop></linearGradient></defs></svg>